<svg xmlns="http://www.w3.org/2000/svg" width="320" height="320" viewBox="0 0 32 32"><g fill="none"><g filter="url(#f2029ida)"><path fill="#EAE4F2" d="m23.623 21.425l.995.996a1.37 1.37 0 0 0 1.94 0l3.143-3.147a1.01 1.01 0 0 0 0-1.434l-5.83-5.837a.445.445 0 0 1 0-.637c.11-.11.26-.15.399-.12c.945.16 1.95-.12 2.676-.846a3.07 3.07 0 0 0-.03-4.362l-.856-.867l-.388.13a3.05 3.05 0 0 0-3.89 3.406c.02.15-.02.289-.129.398l-.02.02a.444.444 0 0 1-.636 0L15.167 3.3a1.01 1.01 0 0 0-1.433 0l-3.113 3.117c-.08.08-.14.17-.2.259l-.208-.21l-.737.738l1.144 1.145l.02.02c.279.279.657.428 1.045.408a3.06 3.06 0 0 1 2.457 1.056a3.07 3.07 0 0 1 0 4.004a3.06 3.06 0 0 1-4.477.17a3.01 3.01 0 0 1-.885-2.351c.02-.389-.12-.767-.398-1.046a.1.1 0 0 0-.03-.04l-.975-.976l-.427.438l.189.19a1.34 1.34 0 0 0-.697.378l-3.144 3.147a1.01 1.01 0 0 0 0 1.434l5.84 5.847c.18.179.18.458 0 .637a.43.43 0 0 1-.398.12a3.06 3.06 0 0 0-2.815.995a3.07 3.07 0 0 0-.01 4.014a3.05 3.05 0 0 0 4.477.16a3.06 3.06 0 0 0 .855-2.64a.46.46 0 0 1 .13-.398l.02-.02a.444.444 0 0 1 .636 0l5.8 5.806a1.01 1.01 0 0 0 1.433 0l3.114-3.117a1.37 1.37 0 0 0 0-1.942l-.02-.02l-.886-.887l-.388.389l.11.11a3.07 3.07 0 0 1-2.328-1.056a3.07 3.07 0 0 1 0-4.004a3.06 3.06 0 0 1 4.477-.17c.517.519.815 1.186.875 1.863l-.02-.02z"/><path fill="url(#f2029id0)" d="m23.623 21.425l.995.996a1.37 1.37 0 0 0 1.94 0l3.143-3.147a1.01 1.01 0 0 0 0-1.434l-5.83-5.837a.445.445 0 0 1 0-.637c.11-.11.26-.15.399-.12c.945.16 1.95-.12 2.676-.846a3.07 3.07 0 0 0-.03-4.362l-.856-.867l-.388.13a3.05 3.05 0 0 0-3.89 3.406c.02.15-.02.289-.129.398l-.02.02a.444.444 0 0 1-.636 0L15.167 3.3a1.01 1.01 0 0 0-1.433 0l-3.113 3.117c-.08.08-.14.17-.2.259l-.208-.21l-.737.738l1.144 1.145l.02.02c.279.279.657.428 1.045.408a3.06 3.06 0 0 1 2.457 1.056a3.07 3.07 0 0 1 0 4.004a3.06 3.06 0 0 1-4.477.17a3.01 3.01 0 0 1-.885-2.351c.02-.389-.12-.767-.398-1.046a.1.1 0 0 0-.03-.04l-.975-.976l-.427.438l.189.19a1.34 1.34 0 0 0-.697.378l-3.144 3.147a1.01 1.01 0 0 0 0 1.434l5.84 5.847c.18.179.18.458 0 .637a.43.43 0 0 1-.398.12a3.06 3.06 0 0 0-2.815.995a3.07 3.07 0 0 0-.01 4.014a3.05 3.05 0 0 0 4.477.16a3.06 3.06 0 0 0 .855-2.64a.46.46 0 0 1 .13-.398l.02-.02a.444.444 0 0 1 .636 0l5.8 5.806a1.01 1.01 0 0 0 1.433 0l3.114-3.117a1.37 1.37 0 0 0 0-1.942l-.02-.02l-.886-.887l-.388.389l.11.11a3.07 3.07 0 0 1-2.328-1.056a3.07 3.07 0 0 1 0-4.004a3.06 3.06 0 0 1 4.477-.17c.517.519.815 1.186.875 1.863l-.02-.02z"/></g><path fill="url(#f2029id1)" d="m23.623 21.425l.995.996a1.37 1.37 0 0 0 1.94 0l3.143-3.147a1.01 1.01 0 0 0 0-1.434l-5.83-5.837a.445.445 0 0 1 0-.637c.11-.11.26-.15.399-.12c.945.16 1.95-.12 2.676-.846a3.07 3.07 0 0 0-.03-4.362l-.856-.867l-.388.13a3.05 3.05 0 0 0-3.89 3.406c.02.15-.02.289-.129.398l-.02.02a.444.444 0 0 1-.636 0L15.167 3.3a1.01 1.01 0 0 0-1.433 0l-3.113 3.117c-.08.08-.14.17-.2.259l-.208-.21l-.737.738l1.144 1.145l.02.02c.279.279.657.428 1.045.408a3.06 3.06 0 0 1 2.457 1.056a3.07 3.07 0 0 1 0 4.004a3.06 3.06 0 0 1-4.477.17a3.01 3.01 0 0 1-.885-2.351c.02-.389-.12-.767-.398-1.046a.1.1 0 0 0-.03-.04l-.975-.976l-.427.438l.189.19a1.34 1.34 0 0 0-.697.378l-3.144 3.147a1.01 1.01 0 0 0 0 1.434l5.84 5.847c.18.179.18.458 0 .637a.43.43 0 0 1-.398.12a3.06 3.06 0 0 0-2.815.995a3.07 3.07 0 0 0-.01 4.014a3.05 3.05 0 0 0 4.477.16a3.06 3.06 0 0 0 .855-2.64a.46.46 0 0 1 .13-.398l.02-.02a.444.444 0 0 1 .636 0l5.8 5.806a1.01 1.01 0 0 0 1.433 0l3.114-3.117a1.37 1.37 0 0 0 0-1.942l-.02-.02l-.886-.887l-.388.389l.11.11a3.07 3.07 0 0 1-2.328-1.056a3.07 3.07 0 0 1 0-4.004a3.06 3.06 0 0 1 4.477-.17c.517.519.815 1.186.875 1.863l-.02-.02z"/><path fill="url(#f2029id2)" d="m23.623 21.425l.995.996a1.37 1.37 0 0 0 1.94 0l3.143-3.147a1.01 1.01 0 0 0 0-1.434l-5.83-5.837a.445.445 0 0 1 0-.637c.11-.11.26-.15.399-.12c.945.16 1.95-.12 2.676-.846a3.07 3.07 0 0 0-.03-4.362l-.856-.867l-.388.13a3.05 3.05 0 0 0-3.89 3.406c.02.15-.02.289-.129.398l-.02.02a.444.444 0 0 1-.636 0L15.167 3.3a1.01 1.01 0 0 0-1.433 0l-3.113 3.117c-.08.08-.14.17-.2.259l-.208-.21l-.737.738l1.144 1.145l.02.02c.279.279.657.428 1.045.408a3.06 3.06 0 0 1 2.457 1.056a3.07 3.07 0 0 1 0 4.004a3.06 3.06 0 0 1-4.477.17a3.01 3.01 0 0 1-.885-2.351c.02-.389-.12-.767-.398-1.046a.1.1 0 0 0-.03-.04l-.975-.976l-.427.438l.189.19a1.34 1.34 0 0 0-.697.378l-3.144 3.147a1.01 1.01 0 0 0 0 1.434l5.84 5.847c.18.179.18.458 0 .637a.43.43 0 0 1-.398.12a3.06 3.06 0 0 0-2.815.995a3.07 3.07 0 0 0-.01 4.014a3.05 3.05 0 0 0 4.477.16a3.06 3.06 0 0 0 .855-2.64a.46.46 0 0 1 .13-.398l.02-.02a.444.444 0 0 1 .636 0l5.8 5.806a1.01 1.01 0 0 0 1.433 0l3.114-3.117a1.37 1.37 0 0 0 0-1.942l-.02-.02l-.886-.887l-.388.389l.11.11a3.07 3.07 0 0 1-2.328-1.056a3.07 3.07 0 0 1 0-4.004a3.06 3.06 0 0 1 4.477-.17c.517.519.815 1.186.875 1.863l-.02-.02z"/><path fill="url(#f2029id3)" d="m23.623 21.425l.995.996a1.37 1.37 0 0 0 1.94 0l3.143-3.147a1.01 1.01 0 0 0 0-1.434l-5.83-5.837a.445.445 0 0 1 0-.637c.11-.11.26-.15.399-.12c.945.16 1.95-.12 2.676-.846a3.07 3.07 0 0 0-.03-4.362l-.856-.867l-.388.13a3.05 3.05 0 0 0-3.89 3.406c.02.15-.02.289-.129.398l-.02.02a.444.444 0 0 1-.636 0L15.167 3.3a1.01 1.01 0 0 0-1.433 0l-3.113 3.117c-.08.08-.14.17-.2.259l-.208-.21l-.737.738l1.144 1.145l.02.02c.279.279.657.428 1.045.408a3.06 3.06 0 0 1 2.457 1.056a3.07 3.07 0 0 1 0 4.004a3.06 3.06 0 0 1-4.477.17a3.01 3.01 0 0 1-.885-2.351c.02-.389-.12-.767-.398-1.046a.1.1 0 0 0-.03-.04l-.975-.976l-.427.438l.189.19a1.34 1.34 0 0 0-.697.378l-3.144 3.147a1.01 1.01 0 0 0 0 1.434l5.84 5.847c.18.179.18.458 0 .637a.43.43 0 0 1-.398.12a3.06 3.06 0 0 0-2.815.995a3.07 3.07 0 0 0-.01 4.014a3.05 3.05 0 0 0 4.477.16a3.06 3.06 0 0 0 .855-2.64a.46.46 0 0 1 .13-.398l.02-.02a.444.444 0 0 1 .636 0l5.8 5.806a1.01 1.01 0 0 0 1.433 0l3.114-3.117a1.37 1.37 0 0 0 0-1.942l-.02-.02l-.886-.887l-.388.389l.11.11a3.07 3.07 0 0 1-2.328-1.056a3.07 3.07 0 0 1 0-4.004a3.06 3.06 0 0 1 4.477-.17c.517.519.815 1.186.875 1.863l-.02-.02z"/><path fill="url(#f2029id4)" d="m23.623 21.425l.995.996a1.37 1.37 0 0 0 1.94 0l3.143-3.147a1.01 1.01 0 0 0 0-1.434l-5.83-5.837a.445.445 0 0 1 0-.637c.11-.11.26-.15.399-.12c.945.16 1.95-.12 2.676-.846a3.07 3.07 0 0 0-.03-4.362l-.856-.867l-.388.13a3.05 3.05 0 0 0-3.89 3.406c.02.15-.02.289-.129.398l-.02.02a.444.444 0 0 1-.636 0L15.167 3.3a1.01 1.01 0 0 0-1.433 0l-3.113 3.117c-.08.08-.14.17-.2.259l-.208-.21l-.737.738l1.144 1.145l.02.02c.279.279.657.428 1.045.408a3.06 3.06 0 0 1 2.457 1.056a3.07 3.07 0 0 1 0 4.004a3.06 3.06 0 0 1-4.477.17a3.01 3.01 0 0 1-.885-2.351c.02-.389-.12-.767-.398-1.046a.1.1 0 0 0-.03-.04l-.975-.976l-.427.438l.189.19a1.34 1.34 0 0 0-.697.378l-3.144 3.147a1.01 1.01 0 0 0 0 1.434l5.84 5.847c.18.179.18.458 0 .637a.43.43 0 0 1-.398.12a3.06 3.06 0 0 0-2.815.995a3.07 3.07 0 0 0-.01 4.014a3.05 3.05 0 0 0 4.477.16a3.06 3.06 0 0 0 .855-2.64a.46.46 0 0 1 .13-.398l.02-.02a.444.444 0 0 1 .636 0l5.8 5.806a1.01 1.01 0 0 0 1.433 0l3.114-3.117a1.37 1.37 0 0 0 0-1.942l-.02-.02l-.886-.887l-.388.389l.11.11a3.07 3.07 0 0 1-2.328-1.056a3.07 3.07 0 0 1 0-4.004a3.06 3.06 0 0 1 4.477-.17c.517.519.815 1.186.875 1.863l-.02-.02z"/><path fill="url(#f2029id5)" d="m23.623 21.425l.995.996a1.37 1.37 0 0 0 1.94 0l3.143-3.147a1.01 1.01 0 0 0 0-1.434l-5.83-5.837a.445.445 0 0 1 0-.637c.11-.11.26-.15.399-.12c.945.16 1.95-.12 2.676-.846a3.07 3.07 0 0 0-.03-4.362l-.856-.867l-.388.13a3.05 3.05 0 0 0-3.89 3.406c.02.15-.02.289-.129.398l-.02.02a.444.444 0 0 1-.636 0L15.167 3.3a1.01 1.01 0 0 0-1.433 0l-3.113 3.117c-.08.08-.14.17-.2.259l-.208-.21l-.737.738l1.144 1.145l.02.02c.279.279.657.428 1.045.408a3.06 3.06 0 0 1 2.457 1.056a3.07 3.07 0 0 1 0 4.004a3.06 3.06 0 0 1-4.477.17a3.01 3.01 0 0 1-.885-2.351c.02-.389-.12-.767-.398-1.046a.1.1 0 0 0-.03-.04l-.975-.976l-.427.438l.189.19a1.34 1.34 0 0 0-.697.378l-3.144 3.147a1.01 1.01 0 0 0 0 1.434l5.84 5.847c.18.179.18.458 0 .637a.43.43 0 0 1-.398.12a3.06 3.06 0 0 0-2.815.995a3.07 3.07 0 0 0-.01 4.014a3.05 3.05 0 0 0 4.477.16a3.06 3.06 0 0 0 .855-2.64a.46.46 0 0 1 .13-.398l.02-.02a.444.444 0 0 1 .636 0l5.8 5.806a1.01 1.01 0 0 0 1.433 0l3.114-3.117a1.37 1.37 0 0 0 0-1.942l-.02-.02l-.886-.887l-.388.389l.11.11a3.07 3.07 0 0 1-2.328-1.056a3.07 3.07 0 0 1 0-4.004a3.06 3.06 0 0 1 4.477-.17c.517.519.815 1.186.875 1.863l-.02-.02z"/><path fill="url(#f2029id6)" d="m23.623 21.425l.995.996a1.37 1.37 0 0 0 1.94 0l3.143-3.147a1.01 1.01 0 0 0 0-1.434l-5.83-5.837a.445.445 0 0 1 0-.637c.11-.11.26-.15.399-.12c.945.16 1.95-.12 2.676-.846a3.07 3.07 0 0 0-.03-4.362l-.856-.867l-.388.13a3.05 3.05 0 0 0-3.89 3.406c.02.15-.02.289-.129.398l-.02.02a.444.444 0 0 1-.636 0L15.167 3.3a1.01 1.01 0 0 0-1.433 0l-3.113 3.117c-.08.08-.14.17-.2.259l-.208-.21l-.737.738l1.144 1.145l.02.02c.279.279.657.428 1.045.408a3.06 3.06 0 0 1 2.457 1.056a3.07 3.07 0 0 1 0 4.004a3.06 3.06 0 0 1-4.477.17a3.01 3.01 0 0 1-.885-2.351c.02-.389-.12-.767-.398-1.046a.1.1 0 0 0-.03-.04l-.975-.976l-.427.438l.189.19a1.34 1.34 0 0 0-.697.378l-3.144 3.147a1.01 1.01 0 0 0 0 1.434l5.84 5.847c.18.179.18.458 0 .637a.43.43 0 0 1-.398.12a3.06 3.06 0 0 0-2.815.995a3.07 3.07 0 0 0-.01 4.014a3.05 3.05 0 0 0 4.477.16a3.06 3.06 0 0 0 .855-2.64a.46.46 0 0 1 .13-.398l.02-.02a.444.444 0 0 1 .636 0l5.8 5.806a1.01 1.01 0 0 0 1.433 0l3.114-3.117a1.37 1.37 0 0 0 0-1.942l-.02-.02l-.886-.887l-.388.389l.11.11a3.07 3.07 0 0 1-2.328-1.056a3.07 3.07 0 0 1 0-4.004a3.06 3.06 0 0 1 4.477-.17c.517.519.815 1.186.875 1.863l-.02-.02z"/><path fill="url(#f2029id7)" d="m23.623 21.425l.995.996a1.37 1.37 0 0 0 1.94 0l3.143-3.147a1.01 1.01 0 0 0 0-1.434l-5.83-5.837a.445.445 0 0 1 0-.637c.11-.11.26-.15.399-.12c.945.16 1.95-.12 2.676-.846a3.07 3.07 0 0 0-.03-4.362l-.856-.867l-.388.13a3.05 3.05 0 0 0-3.89 3.406c.02.15-.02.289-.129.398l-.02.02a.444.444 0 0 1-.636 0L15.167 3.3a1.01 1.01 0 0 0-1.433 0l-3.113 3.117c-.08.08-.14.17-.2.259l-.208-.21l-.737.738l1.144 1.145l.02.02c.279.279.657.428 1.045.408a3.06 3.06 0 0 1 2.457 1.056a3.07 3.07 0 0 1 0 4.004a3.06 3.06 0 0 1-4.477.17a3.01 3.01 0 0 1-.885-2.351c.02-.389-.12-.767-.398-1.046a.1.1 0 0 0-.03-.04l-.975-.976l-.427.438l.189.19a1.34 1.34 0 0 0-.697.378l-3.144 3.147a1.01 1.01 0 0 0 0 1.434l5.84 5.847c.18.179.18.458 0 .637a.43.43 0 0 1-.398.12a3.06 3.06 0 0 0-2.815.995a3.07 3.07 0 0 0-.01 4.014a3.05 3.05 0 0 0 4.477.16a3.06 3.06 0 0 0 .855-2.64a.46.46 0 0 1 .13-.398l.02-.02a.444.444 0 0 1 .636 0l5.8 5.806a1.01 1.01 0 0 0 1.433 0l3.114-3.117a1.37 1.37 0 0 0 0-1.942l-.02-.02l-.886-.887l-.388.389l.11.11a3.07 3.07 0 0 1-2.328-1.056a3.07 3.07 0 0 1 0-4.004a3.06 3.06 0 0 1 4.477-.17c.517.519.815 1.186.875 1.863l-.02-.02z"/><path fill="url(#f2029id8)" d="m23.623 21.425l.995.996a1.37 1.37 0 0 0 1.94 0l3.143-3.147a1.01 1.01 0 0 0 0-1.434l-5.83-5.837a.445.445 0 0 1 0-.637c.11-.11.26-.15.399-.12c.945.16 1.95-.12 2.676-.846a3.07 3.07 0 0 0-.03-4.362l-.856-.867l-.388.13a3.05 3.05 0 0 0-3.89 3.406c.02.15-.02.289-.129.398l-.02.02a.444.444 0 0 1-.636 0L15.167 3.3a1.01 1.01 0 0 0-1.433 0l-3.113 3.117c-.08.08-.14.17-.2.259l-.208-.21l-.737.738l1.144 1.145l.02.02c.279.279.657.428 1.045.408a3.06 3.06 0 0 1 2.457 1.056a3.07 3.07 0 0 1 0 4.004a3.06 3.06 0 0 1-4.477.17a3.01 3.01 0 0 1-.885-2.351c.02-.389-.12-.767-.398-1.046a.1.1 0 0 0-.03-.04l-.975-.976l-.427.438l.189.19a1.34 1.34 0 0 0-.697.378l-3.144 3.147a1.01 1.01 0 0 0 0 1.434l5.84 5.847c.18.179.18.458 0 .637a.43.43 0 0 1-.398.12a3.06 3.06 0 0 0-2.815.995a3.07 3.07 0 0 0-.01 4.014a3.05 3.05 0 0 0 4.477.16a3.06 3.06 0 0 0 .855-2.64a.46.46 0 0 1 .13-.398l.02-.02a.444.444 0 0 1 .636 0l5.8 5.806a1.01 1.01 0 0 0 1.433 0l3.114-3.117a1.37 1.37 0 0 0 0-1.942l-.02-.02l-.886-.887l-.388.389l.11.11a3.07 3.07 0 0 1-2.328-1.056a3.07 3.07 0 0 1 0-4.004a3.06 3.06 0 0 1 4.477-.17c.517.519.815 1.186.875 1.863l-.02-.02z"/><path fill="url(#f2029id9)" d="M21.77 4.91a3.05 3.05 0 0 0-1.014 2.789c.02.15-.02.289-.13.398l-.02.02a.444.444 0 0 1-.636 0L14.153 2.3a1.007 1.007 0 0 0-1.433 0L9.608 5.417a1.373 1.373 0 0 0 0 1.943l.03.02c.268.27.646.419 1.034.399a3.05 3.05 0 0 1 2.456 1.056a3.07 3.07 0 0 1 0 4.005a3.06 3.06 0 0 1-4.475.17a3.12 3.12 0 0 1-.885-2.362c.03-.389-.12-.777-.398-1.046a1.367 1.367 0 0 0-1.94 0L2.299 12.74a1.01 1.01 0 0 0 0 1.435l5.838 5.848a.446.446 0 0 1 0 .638a.43.43 0 0 1-.398.12a3.06 3.06 0 0 0-2.814.996a3.075 3.075 0 0 0-.01 4.015a3.05 3.05 0 0 0 4.475.16a3.06 3.06 0 0 0 .855-2.64a.46.46 0 0 1 .13-.4l.02-.02a.444.444 0 0 1 .636 0l5.798 5.81a1.007 1.007 0 0 0 1.432 0l3.112-3.12a1.373 1.373 0 0 0 0-1.942l-.02-.02a1.37 1.37 0 0 0-1.034-.399a3.05 3.05 0 0 1-2.456-1.056a3.07 3.07 0 0 1 0-4.005a3.06 3.06 0 0 1 4.475-.17c.646.648.945 1.505.885 2.352c-.02.389.12.767.398 1.046a1.367 1.367 0 0 0 1.94 0l3.142-3.148a1.01 1.01 0 0 0 0-1.435l-5.828-5.838a.446.446 0 0 1 0-.638c.11-.11.259-.15.398-.12a3.05 3.05 0 0 0 2.675-.846a3.063 3.063 0 0 0-.17-4.484c-1.153-.956-2.873-.956-4.007.03"/><defs><radialGradient id="f2029id0" cx="0" cy="0" r="1" gradientTransform="matrix(-4.66066 1.65995 -1.40204 -3.93652 21.631 17.94)" gradientUnits="userSpaceOnUse"><stop offset=".315" stop-color="#BA84E6"/><stop offset="1" stop-color="#BA84E6" stop-opacity="0"/></radialGradient><radialGradient id="f2029id1" cx="0" cy="0" r="1" gradientTransform="rotate(74.055 -3.18 9.956)scale(5.11275)" gradientUnits="userSpaceOnUse"><stop stop-color="#E8DFF2"/><stop offset="1" stop-color="#E8DFF2" stop-opacity="0"/></radialGradient><radialGradient id="f2029id2" cx="0" cy="0" r="1" gradientTransform="rotate(66.552 -11.812 20.335)scale(2.88804 1.45478)" gradientUnits="userSpaceOnUse"><stop offset=".24" stop-color="#BC81EC"/><stop offset="1" stop-color="#BC81EC" stop-opacity="0"/></radialGradient><radialGradient id="f2029id3" cx="0" cy="0" r="1" gradientTransform="rotate(-45 45.177 -6.642)scale(1.50745 2.78132)" gradientUnits="userSpaceOnUse"><stop stop-color="#C285F2"/><stop offset="1" stop-color="#C285F2" stop-opacity="0"/></radialGradient><radialGradient id="f2029id4" cx="0" cy="0" r="1" gradientTransform="rotate(-35.838 48.016 -27.09)scale(1.41758 2.61551)" gradientUnits="userSpaceOnUse"><stop stop-color="#C285F2"/><stop offset="1" stop-color="#C285F2" stop-opacity="0"/></radialGradient><radialGradient id="f2029id5" cx="0" cy="0" r="1" gradientTransform="rotate(131.496 12.212 9.188)scale(2.21624)" gradientUnits="userSpaceOnUse"><stop stop-color="#EEECF1"/><stop offset="1" stop-color="#EEECF1" stop-opacity="0"/></radialGradient><radialGradient id="f2029id6" cx="0" cy="0" r="1" gradientTransform="rotate(130.536 10.912 15.784)scale(2.85622)" gradientUnits="userSpaceOnUse"><stop stop-color="#EEECF1"/><stop offset="1" stop-color="#EEECF1" stop-opacity="0"/></radialGradient><radialGradient id="f2029id7" cx="0" cy="0" r="1" gradientTransform="rotate(133.025 5.898 17.326)scale(2.61996)" gradientUnits="userSpaceOnUse"><stop stop-color="#EEECF1"/><stop offset="1" stop-color="#EEECF1" stop-opacity="0"/></radialGradient><radialGradient id="f2029id8" cx="0" cy="0" r="1" gradientTransform="rotate(47.726 1.364 32.34)scale(5.69471 2.28475)" gradientUnits="userSpaceOnUse"><stop offset=".204" stop-color="#C0A5DB"/><stop offset="1" stop-color="#C0A5DB" stop-opacity="0"/></radialGradient><linearGradient id="f2029id9" x1="21.121" x2="5.028" y1="9.257" y2="25.945" gradientUnits="userSpaceOnUse"><stop stop-color="#CEDA5F"/><stop offset="1" stop-color="#74EB95"/></linearGradient><filter id="f2029ida" width="28" height="28" x="3" y="2" color-interpolation-filters="sRGB" filterUnits="userSpaceOnUse"><feFlood flood-opacity="0" result="BackgroundImageFix"/><feBlend in="SourceGraphic" in2="BackgroundImageFix" result="shape"/><feColorMatrix in="SourceAlpha" result="hardAlpha" values="0 0 0 0 0 0 0 0 0 0 0 0 0 0 0 0 0 0 127 0"/><feOffset dx="1" dy="-1"/><feGaussianBlur stdDeviation="2"/><feComposite in2="hardAlpha" k2="-1" k3="1" operator="arithmetic"/><feColorMatrix values="0 0 0 0 0.74902 0 0 0 0 0.545098 0 0 0 0 0.913725 0 0 0 1 0"/><feBlend in2="shape" result="effect1_innerShadow_18_3747"/></filter></defs></g></svg>